<svg width="68" height="68" viewBox="0 0 68 68" fill="none" xmlns="http://www.w3.org/2000/svg">
<path fill-rule="evenodd" clip-rule="evenodd" d="M21.1332 35.8596C22.8545 35.8596 24.2499 34.4642 24.2499 32.7431C24.2499 31.0217 22.8545 29.6263 21.1332 29.6263C19.4119 29.6263 18.0165 31.0217 18.0165 32.7431C18.0165 34.4642 19.4119 35.8596 21.1332 35.8596ZM21.1332 48.3257C22.8545 48.3257 24.2499 46.9303 24.2499 45.2092C24.2499 43.4878 22.8545 42.0925 21.1332 42.0925C19.4119 42.0925 18.0165 43.4878 18.0165 45.2092C18.0165 46.9303 19.4119 48.3257 21.1332 48.3257ZM49.1832 32.7431C49.1832 34.4642 47.7879 35.8596 46.0668 35.8596C44.3454 35.8596 42.95 34.4642 42.95 32.7431C42.95 31.0217 44.3454 29.6263 46.0668 29.6263C47.7879 29.6263 49.1832 31.0217 49.1832 32.7431ZM46.0668 48.3257C47.7879 48.3257 49.1832 46.9303 49.1832 45.2092C49.1832 43.4878 47.7879 42.0925 46.0668 42.0925C44.3454 42.0925 42.95 43.4878 42.95 45.2092C42.95 46.9303 44.3454 48.3257 46.0668 48.3257ZM36.7168 32.7431C36.7168 34.4642 35.3214 35.8596 33.6 35.8596C31.8789 35.8596 30.4835 34.4642 30.4835 32.7431C30.4835 31.0217 31.8789 29.6263 33.6 29.6263C35.3214 29.6263 36.7168 31.0217 36.7168 32.7431ZM33.6 48.3257C35.3214 48.3257 36.7168 46.9303 36.7168 45.2092C36.7168 43.4878 35.3214 42.0925 33.6 42.0925C31.8789 42.0925 30.4835 43.4878 30.4835 45.2092C30.4835 46.9303 31.8789 48.3257 33.6 48.3257ZM21.1335 0C22.5418 0 23.6835 1.14168 23.6835 2.54999V3.1895C26.06 3.11691 28.7789 3.11694 31.9026 3.11694H35.2973C38.4212 3.11694 41.1402 3.11691 43.5164 3.1895V2.54999C43.5164 1.14168 44.6582 0 46.0664 0C47.4747 0 48.6164 1.14168 48.6164 2.54999V3.54279C51.4847 3.90408 53.9041 4.59333 56.0499 5.98257C58.1647 7.35141 59.9656 9.15232 61.3345 11.2669C62.874 13.6455 63.554 16.3597 63.8804 19.6487C64.2 22.8677 64.2 26.9002 64.2 32.0196V32.2974C64.2 37.4171 64.2 41.4495 63.8804 44.6687C63.554 47.9575 62.874 50.6717 61.3345 53.0503C59.9656 55.1648 58.1647 56.9658 56.0499 58.3346C53.6716 59.8745 50.9573 60.5541 47.6682 60.8809C44.4494 61.2005 40.417 61.2001 35.2976 61.2001H31.9025C26.7831 61.2001 22.7507 61.2005 19.5317 60.8809C16.2428 60.5541 13.5285 59.8745 11.15 58.3346C9.03537 56.9658 7.23446 55.1648 5.86562 53.0503C4.32586 50.6717 3.646 47.9575 3.3195 44.6687C2.99996 41.4495 2.99998 37.4171 3 32.2977V32.0196C2.99998 26.9001 2.99996 22.8677 3.3195 19.6487C3.646 16.3597 4.32586 13.6455 5.86562 11.2669C7.23446 9.15232 9.03537 7.35141 11.15 5.98257C13.296 4.59333 15.7154 3.90408 18.5835 3.54279V2.54999C18.5835 1.14168 19.7251 0 21.1335 0ZM43.5164 8.29164V8.78335C43.5164 10.1917 44.6582 11.3334 46.0664 11.3334C47.4747 11.3334 48.6164 10.1917 48.6164 8.78335V8.69124C50.6928 9.00676 52.1157 9.51109 53.2785 10.2638C54.7891 11.2416 56.0754 12.5279 57.0532 14.0384C57.7543 15.1216 58.2401 16.4308 58.5584 18.2836C57.5425 18.173 56.3059 18.0513 54.8493 17.9299C50.1039 17.5345 43.0211 17.1419 33.6 17.1419C24.1791 17.1419 17.0959 17.5345 12.3507 17.9299C10.894 18.0513 9.65764 18.173 8.64169 18.2836C8.95993 16.4308 9.44562 15.1216 10.1469 14.0384C11.1246 12.5279 12.411 11.2416 13.9214 10.2638C15.0842 9.51109 16.5072 9.00676 18.5835 8.69124V8.78335C18.5835 10.1917 19.7251 11.3334 21.1335 11.3334C22.5418 11.3334 23.6835 10.1917 23.6835 8.78335V8.29164C25.9827 8.2181 28.7133 8.21694 32.0417 8.21694H35.1582C38.4868 8.21694 41.2174 8.2181 43.5164 8.29164ZM59.014 23.4682C57.9025 23.3363 56.3729 23.1746 54.4257 23.0123C49.8211 22.6286 42.8789 22.2419 33.6 22.2419C24.3209 22.2419 17.3791 22.6286 12.7743 23.0123C10.827 23.1746 9.29755 23.3363 8.18595 23.4682C8.10129 25.8356 8.1 28.6684 8.1 32.1587C8.1 37.4474 8.10292 41.2272 8.39454 44.1648C8.68211 47.0616 9.23036 48.8632 10.1469 50.279C11.1246 51.7893 12.411 53.0755 13.9214 54.0533C15.3372 54.97 17.1387 55.5181 20.0356 55.8057C22.9733 56.0974 26.7528 56.1001 32.0417 56.1001H35.1582C40.4473 56.1001 44.2267 56.0974 47.1643 55.8057C50.0614 55.5181 51.8628 54.97 53.2785 54.0533C54.7891 53.0755 56.0754 51.7893 57.0532 50.279C57.9695 48.8632 58.5179 47.0616 58.8056 44.1648C59.0969 41.2272 59.1 37.4474 59.1 32.1587C59.1 28.6684 59.0986 25.8356 59.014 23.4682Z" fill="white"/>
<ellipse cx="46" cy="44.5" rx="5" ry="4.5" fill="#1454A3"/>
<path fill-rule="evenodd" clip-rule="evenodd" d="M24.1385 2.55C24.1385 1.14169 22.9968 0 21.5885 0C20.1802 0 19.0385 1.14169 19.0385 2.55V3.5428C16.1704 3.90405 13.7511 4.5933 11.605 5.98254C9.49045 7.35138 7.68954 9.15229 6.32067 11.2669C4.78094 13.6454 4.10108 16.3597 3.77458 19.6486C3.45503 22.8676 3.45505 26.9 3.45508 32.0194V32.2976C3.45505 37.4169 3.45503 41.4493 3.77458 44.6685C4.10108 47.9573 4.78094 50.6715 6.32067 53.0501C7.68954 55.1646 9.49045 56.9656 11.605 58.3344C13.9836 59.8739 16.6978 60.5539 19.9868 60.8803C23.2057 61.1999 27.2381 61.1999 32.3575 61.1999H34.055C35.4634 61.1999 36.6051 60.0582 36.6051 58.6499C36.6051 57.2416 35.4634 56.0999 34.055 56.0999H32.4967C27.2078 56.0999 23.4283 56.0969 20.4906 55.8055C17.5937 55.5179 15.7922 54.9694 14.3765 54.0531C12.866 53.0753 11.5797 51.7891 10.6019 50.2785C9.68544 48.8627 9.13719 47.0614 8.84962 44.1646C8.558 41.227 8.55508 37.4472 8.55508 32.1585C8.55508 29.6583 8.55572 27.4955 8.58721 25.5994C9.70309 25.4664 11.2504 25.3021 13.2293 25.1372C17.8341 24.7534 24.7759 24.3668 34.055 24.3668C43.334 24.3668 50.2758 24.7534 54.8808 25.1372C56.8759 25.3034 58.4324 25.4692 59.5503 25.6027C59.5547 26.5566 59.5551 27.5976 59.5551 28.7405V31.2555C59.5551 32.6641 60.6965 33.8055 62.1051 33.8055C63.5134 33.8055 64.6551 32.6641 64.6551 31.2555V28.6449C64.6551 28.5892 64.6551 28.5338 64.6551 28.4785V27.6249C64.6537 24.5614 64.6398 22.092 64.4987 20.0571C64.3392 17.7575 64.0084 15.8242 63.2526 14.0314C61.4434 9.74161 58.0302 6.32828 53.7404 4.51938C52.3114 3.91683 50.7933 3.58448 49.0715 3.39364V2.55C49.0715 1.14169 47.9298 0 46.5215 0C45.1132 0 43.9715 1.14169 43.9715 2.55V3.13742C42.5316 3.11692 40.9261 3.11692 39.1269 3.11695H32.3576C29.2339 3.11692 26.515 3.11692 24.1385 3.18947V2.55ZM43.9715 8.78329V8.23789C42.5626 8.21729 40.9387 8.21692 39.0313 8.21692H32.4967C29.1683 8.21692 26.4377 8.21807 24.1385 8.29161V8.78329C24.1385 10.1916 22.9968 11.3333 21.5885 11.3333C20.1802 11.3333 19.0385 10.1916 19.0385 8.78329V8.69122C16.9622 9.00674 15.5392 9.51106 14.3765 10.2637C12.866 11.2415 11.5797 12.5279 10.6019 14.0383C9.68544 15.4541 9.13719 17.2555 8.84962 20.1524C8.84024 20.247 8.83116 20.3424 8.82235 20.4387C9.88744 20.3202 11.2152 20.1874 12.8058 20.0548C17.551 19.6594 24.6341 19.2668 34.055 19.2668C43.4758 19.2668 50.559 19.6594 55.3041 20.0548C56.9582 20.1926 58.328 20.3308 59.4136 20.4528L59.4109 20.4099C59.2698 18.3743 58.9992 17.071 58.5531 16.0129C57.2611 12.9488 54.823 10.5107 51.7589 9.21866C51.0316 8.91201 50.1884 8.68843 49.0715 8.53274V8.78329C49.0715 10.1916 47.9298 11.3333 46.5215 11.3333C45.1132 11.3333 43.9715 10.1916 43.9715 8.78329ZM50.4781 43.4611C49.4867 43.4611 48.6829 44.2649 48.6829 45.2563V48.8018C48.6829 49.7929 49.4867 50.5967 50.4781 50.5967H54.0233C55.0151 50.5967 55.8185 49.7929 55.8185 48.8018C55.8185 47.8104 55.0151 47.0066 54.0233 47.0066H52.2733V45.2563C52.2733 44.2649 51.4695 43.4611 50.4781 43.4611ZM51.3723 39.3226C46.6256 39.3226 42.7774 43.1704 42.7774 47.9172C42.7774 52.6639 46.6256 56.512 51.3723 56.512C56.119 56.512 59.9672 52.6639 59.9672 47.9172C59.9672 43.1704 56.119 39.3226 51.3723 39.3226ZM38.0895 47.9172C38.0895 40.5813 44.0365 34.6344 51.3723 34.6344C58.7081 34.6344 64.6551 40.5813 64.6551 47.9172C64.6551 55.253 58.7081 61.1999 51.3723 61.1999C44.0365 61.1999 38.0895 55.253 38.0895 47.9172Z" fill="white"/>
</svg>
