<svg width="24" height="24" viewBox="0 0 24 24" fill="none" xmlns="http://www.w3.org/2000/svg">
<path fill-rule="evenodd" clip-rule="evenodd" d="M11.3961 1.08973H11.5973C12.156 1.08973 12.6091 1.54227 12.6091 2.10048C12.6091 2.65871 12.156 3.11123 11.5973 3.11123H11.4671C9.0602 3.11123 7.35041 3.11312 6.04568 3.27781C4.76649 3.43928 4.01915 3.74288 3.46364 4.24584C3.35731 4.34212 3.25576 4.44355 3.15939 4.54977C2.65591 5.10471 2.35199 5.85127 2.19036 7.12914C2.02549 8.4325 2.0236 10.1405 2.0236 12.5449C2.0236 14.9492 2.02549 16.6572 2.19036 17.9607C2.35199 19.2384 2.65591 19.9851 3.15939 20.54C3.25576 20.6461 3.35731 20.7476 3.46364 20.8439C4.01915 21.3468 4.76649 21.6504 6.04568 21.8119C7.3504 21.9767 9.0602 21.9785 11.4671 21.9785C13.874 21.9785 15.5837 21.9767 16.8884 21.8119C18.1676 21.6504 18.9149 21.3468 19.4705 20.8439C19.5768 20.7476 19.6784 20.6461 19.7748 20.54C20.2783 19.9851 20.5821 19.2384 20.7437 17.9607C20.9087 16.6572 20.9105 14.9492 20.9105 12.5449C20.9105 11.9867 21.3635 11.5341 21.9223 11.5341C22.4811 11.5341 22.9341 11.9867 22.9341 12.5449V12.6157C22.9341 14.9333 22.9341 16.7692 22.7515 18.214C22.5636 19.6991 22.1685 20.9117 21.2741 21.8975C21.1333 22.0528 20.9849 22.2011 20.8295 22.3417C19.8427 23.2352 18.6287 23.6299 17.1421 23.8175C15.6957 24 13.858 24 11.538 24H11.3961C9.07612 24 7.23835 24 5.79201 23.8175C4.30541 23.6299 3.09151 23.2352 2.10467 22.3417C1.94927 22.2011 1.80085 22.0528 1.66 21.8975C0.7656 20.9117 0.37056 19.6991 0.18272 18.214C-3.29316e-05 16.7692 -1.82906e-05 14.9333 3.76064e-07 12.6159V12.4739C-1.82906e-05 10.1564 -3.29316e-05 8.32053 0.18272 6.87572C0.37056 5.39068 0.7656 4.17801 1.66 3.19221C1.80085 3.03697 1.94927 2.88872 2.10467 2.74801C3.09151 1.85453 4.30543 1.45991 5.79201 1.27227C7.23833 1.08971 9.07609 1.08972 11.3961 1.08973ZM22.0384 1.89249C22.0495 1.90364 22.0607 1.91483 22.072 1.92604C22.0832 1.93727 22.0944 1.94845 22.1056 1.9596C22.5631 2.41656 22.9576 2.81065 23.2484 3.16465C23.5564 3.53969 23.8185 3.95095 23.93 4.46084C24.0233 4.88731 24.0233 5.32886 23.93 5.75532C23.8185 6.26522 23.5564 6.67647 23.2484 7.05152C22.9576 7.40551 22.5631 7.7996 22.1056 8.25656L16.7973 13.5593C16.7584 13.5981 16.72 13.6365 16.682 13.6745C16.0163 14.3409 15.4893 14.8683 14.8035 15.1521C14.1175 15.436 13.3705 15.4352 12.4267 15.4344C12.3728 15.4343 12.3183 15.4343 12.2632 15.4343H12.2028C11.6177 15.4343 11.0816 15.4344 10.6456 15.3759C10.1658 15.3116 9.65833 15.1603 9.24116 14.7435C8.824 14.3268 8.67247 13.8197 8.60807 13.3405C8.54955 12.9049 8.54961 12.3695 8.54968 11.785V11.7246C8.54968 11.6695 8.54963 11.6151 8.54957 11.5613C8.54868 10.6184 8.54796 9.87224 8.83208 9.18702C9.11621 8.5018 9.64415 7.97543 10.3112 7.31034C10.3492 7.27244 10.3877 7.2341 10.4266 7.19524L15.7012 1.92604C15.7125 1.91483 15.7237 1.90364 15.7348 1.89249C16.1923 1.43549 16.5868 1.04136 16.9412 0.750881C17.3165 0.443134 17.7283 0.181294 18.2387 0.069881C18.6656 -0.0232937 19.1076 -0.0232937 19.5345 0.069881C20.0449 0.181294 20.4567 0.443134 20.832 0.750881C21.1864 1.04136 21.5809 1.43549 22.0384 1.89249ZM19.5484 2.3136C19.2928 2.10409 19.1716 2.05987 19.1025 2.04479C18.9603 2.01373 18.8129 2.01373 18.6707 2.04479C18.6016 2.05987 18.4804 2.10409 18.2248 2.3136C17.9568 2.53331 17.6327 2.85544 17.1321 3.35545L11.8575 8.62466C11.0192 9.462 10.8121 9.69423 10.7017 9.96062C10.5912 10.2269 10.5733 10.5383 10.5733 11.7246C10.5733 12.3896 10.5754 12.7869 10.6137 13.0716C10.6312 13.2021 10.6519 13.2675 10.664 13.2971C10.6668 13.3039 10.669 13.3084 10.6704 13.3109L10.6721 13.314L10.6752 13.3157C10.6778 13.3171 10.6823 13.3193 10.6891 13.3221C10.7187 13.3343 10.7842 13.3549 10.9148 13.3724C11.1998 13.4107 11.5975 13.4128 12.2632 13.4128C13.4508 13.4128 13.7624 13.3948 14.0291 13.2845C14.2957 13.1741 14.5281 12.9672 15.3664 12.1299L20.6411 6.86071C21.1416 6.36068 21.464 6.03693 21.684 5.76919C21.8937 5.51387 21.938 5.39284 21.9531 5.32383C21.9841 5.18167 21.9841 5.03449 21.9531 4.89233C21.938 4.82332 21.8937 4.70229 21.684 4.44697C21.464 4.17923 21.1416 3.85548 20.6411 3.35545C20.1405 2.85543 19.8164 2.53331 19.5484 2.3136Z" fill="#201F29" fill-opacity="0.51"/>
</svg>
