<svg width="49" height="60" viewBox="0 0 49 60" fill="none" xmlns="http://www.w3.org/2000/svg">
<path fill-rule="evenodd" clip-rule="evenodd" d="M10.3988 12.9114C10.3988 5.50434 17.0125 0 24.5252 0C32.038 0 38.6515 5.50434 38.6515 12.9114C38.6515 20.3184 32.038 25.8228 24.5252 25.8228C17.0125 25.8228 10.3988 20.3184 10.3988 12.9114ZM24.5252 4.55697C18.8981 4.55697 14.8598 8.57364 14.8598 12.9114C14.8598 17.2491 18.8981 21.2658 24.5252 21.2658C30.1525 21.2658 34.1908 17.2491 34.1908 12.9114C34.1908 8.57364 30.1525 4.55697 24.5252 4.55697ZM9.32333 33.6255C18.6554 27.7251 30.3952 27.7251 39.7273 33.6255C45.1939 37.0818 48.5254 43.2306 48.5254 49.854V51.3957C48.5254 52.0017 48.5257 52.4847 48.4795 52.9191C48.0874 56.6184 45.2629 59.5458 41.6782 59.9526C41.2573 60.0003 40.7899 60 40.2043 60H8.84636C8.26097 60 7.79348 60.0003 7.37264 59.9526C3.78782 59.5458 0.963262 56.6184 0.571162 52.9191C0.525112 52.4847 0.525232 52.0017 0.525412 51.3954V49.854C0.525412 43.2306 3.857 37.0818 9.32333 33.6255ZM37.3795 37.5822C29.4883 32.5926 19.5625 32.5926 11.6713 37.5822C7.54145 40.1934 5.02037 44.8419 5.02037 49.854V51.2709C5.02037 52.0599 5.02376 52.2663 5.03945 52.4145C5.20313 53.9589 6.38045 55.1721 7.8638 55.3404C8.00588 55.3566 8.20445 55.3599 8.96729 55.3599H40.0834C40.8463 55.3599 41.0449 55.3566 41.1871 55.3404C42.6703 55.1721 43.8475 53.9589 44.0113 52.4145C44.0269 52.2663 44.0305 52.0599 44.0305 51.2709V49.854C44.0305 44.8419 41.5093 40.1934 37.3795 37.5822Z" fill="white"/>
</svg>
